<svg width="245" height="37" viewBox="0 0 245 37" fill="none" xmlns="http://www.w3.org/2000/svg">
<path d="M18.488 36.72C14.84 36.72 11.624 36.016 8.84 34.608C6.088 33.2 3.96 31.184 2.456 28.56C0.952 25.904 0.2 22.8 0.2 19.248C0.2 15.696 0.952 12.608 2.456 9.984C3.96 7.328 6.088 5.296 8.84 3.888C11.624 2.448 14.84 1.728 18.488 1.728C20.888 1.728 23.032 1.968 24.92 2.448C26.808 2.928 28.552 3.68 30.152 4.704V12.768C28.744 11.648 27.144 10.832 25.352 10.32C23.592 9.808 21.56 9.552 19.256 9.552C15.96 9.552 13.416 10.416 11.624 12.144C9.832 13.84 8.936 16.208 8.936 19.248C8.936 22.288 9.832 24.672 11.624 26.4C13.448 28.128 15.992 28.992 19.256 28.992C21.56 28.992 23.624 28.72 25.448 28.176C27.272 27.632 28.968 26.768 30.536 25.584V33.6C27.496 35.68 23.48 36.72 18.488 36.72ZM41.8636 36.72C38.9836 36.72 36.6476 36.032 34.8556 34.656C33.0956 33.248 32.2156 31.296 32.2156 28.8C32.2156 26.208 33.0636 24.224 34.7596 22.848C36.4876 21.44 38.9516 20.736 42.1516 20.736C43.3996 20.736 44.6476 20.88 45.8956 21.168C47.1436 21.424 48.2156 21.776 49.1116 22.224V21.744C49.1116 19.28 47.0956 18.048 43.0636 18.048C40.2476 18.048 37.6716 18.592 35.3356 19.68V13.872C36.3596 13.392 37.7036 13.008 39.3676 12.72C41.0316 12.4 42.7596 12.24 44.5516 12.24C48.8396 12.24 52.0716 13.104 54.2476 14.832C56.4556 16.528 57.5596 18.912 57.5596 21.984V36H49.6396V34.032C48.7756 34.864 47.6876 35.52 46.3756 36C45.0636 36.48 43.5596 36.72 41.8636 36.72ZM44.3596 31.536C45.3516 31.536 46.2796 31.344 47.1436 30.96C48.0076 30.544 48.6636 30.016 49.1116 29.376V27.36C47.7356 26.432 46.1676 25.968 44.4076 25.968C43.2876 25.968 42.4236 26.208 41.8156 26.688C41.2076 27.168 40.9036 27.872 40.9036 28.8C40.9036 29.664 41.1916 30.336 41.7676 30.816C42.3756 31.296 43.2396 31.536 44.3596 31.536ZM66.1408 9.888C64.8608 9.888 63.7888 9.472 62.9248 8.64C62.0608 7.808 61.6288 6.752 61.6288 5.472C61.6288 4.224 62.0608 3.184 62.9248 2.352C63.7888 1.488 64.8608 1.056 66.1408 1.056C67.3888 1.056 68.4448 1.488 69.3088 2.352C70.2048 3.184 70.6528 4.224 70.6528 5.472C70.6528 6.72 70.2048 7.776 69.3088 8.64C68.4448 9.472 67.3888 9.888 66.1408 9.888ZM61.9168 12.96H70.3648V36H61.9168V12.96ZM88.2361 36.72C85.3881 36.72 82.8921 36.208 80.7481 35.184C78.6041 34.128 76.9401 32.688 75.7561 30.864C74.6041 29.008 74.0281 26.88 74.0281 24.48C74.0281 22.08 74.6041 19.968 75.7561 18.144C76.9401 16.288 78.6041 14.848 80.7481 13.824C82.8921 12.768 85.3881 12.24 88.2361 12.24C91.0841 12.24 93.5801 12.768 95.7241 13.824C97.8681 14.848 99.5161 16.288 100.668 18.144C101.852 19.968 102.444 22.08 102.444 24.48C102.444 26.88 101.852 29.008 100.668 30.864C99.5161 32.688 97.8681 34.128 95.7241 35.184C93.5801 36.208 91.0841 36.72 88.2361 36.72ZM88.2361 30.144C89.9321 30.144 91.2761 29.648 92.2681 28.656C93.2921 27.632 93.8041 26.24 93.8041 24.48C93.8041 22.72 93.2921 21.344 92.2681 20.352C91.2761 19.328 89.9321 18.816 88.2361 18.816C86.5401 18.816 85.1801 19.328 84.1561 20.352C83.1641 21.344 82.6681 22.72 82.6681 24.48C82.6681 26.24 83.1641 27.632 84.1561 28.656C85.1801 29.648 86.5401 30.144 88.2361 30.144ZM122.098 2.448H130.594V36H122.098V2.448ZM134.894 0.527999H143.342V22.224L150.926 12.96H160.622L151.454 24.096L161.87 36H152.174L143.342 25.872V36H134.894V0.527999ZM175.899 36.72C171.387 36.72 167.835 35.664 165.243 33.552C162.683 31.44 161.403 28.448 161.403 24.576C161.403 20.768 162.539 17.76 164.811 15.552C167.115 13.344 170.427 12.24 174.747 12.24C177.499 12.24 179.851 12.768 181.803 13.824C183.787 14.848 185.275 16.272 186.267 18.096C187.291 19.888 187.803 21.92 187.803 24.192V27.312H169.419C169.739 28.592 170.539 29.52 171.819 30.096C173.099 30.672 174.843 30.96 177.051 30.96C178.555 30.96 180.091 30.832 181.659 30.576C183.259 30.32 184.635 29.968 185.787 29.52V35.088C184.603 35.568 183.115 35.952 181.323 36.24C179.563 36.56 177.755 36.72 175.899 36.72ZM179.835 22.032C179.707 20.784 179.195 19.808 178.299 19.104C177.403 18.4 176.171 18.048 174.603 18.048C173.067 18.048 171.851 18.416 170.955 19.152C170.059 19.856 169.547 20.816 169.419 22.032H179.835ZM191.144 12.96H199.304V15.504C200.296 14.416 201.496 13.6 202.904 13.056C204.312 12.512 205.784 12.24 207.32 12.24C210.552 12.24 212.936 13.088 214.472 14.784C216.04 16.448 216.824 18.72 216.824 21.6V36H208.376V22.704C208.376 20.112 207.192 18.816 204.824 18.816C203.736 18.816 202.744 19.072 201.848 19.584C200.952 20.064 200.2 20.816 199.592 21.84V36H191.144V12.96ZM228.895 36.72C226.015 36.72 223.679 36.032 221.887 34.656C220.127 33.248 219.247 31.296 219.247 28.8C219.247 26.208 220.095 24.224 221.791 22.848C223.519 21.44 225.983 20.736 229.183 20.736C230.431 20.736 231.679 20.88 232.927 21.168C234.175 21.424 235.247 21.776 236.143 22.224V21.744C236.143 19.28 234.127 18.048 230.095 18.048C227.279 18.048 224.703 18.592 222.367 19.68V13.872C223.391 13.392 224.735 13.008 226.399 12.72C228.063 12.4 229.791 12.24 231.583 12.24C235.871 12.24 239.103 13.104 241.279 14.832C243.487 16.528 244.591 18.912 244.591 21.984V36H236.671V34.032C235.807 34.864 234.719 35.52 233.407 36C232.095 36.48 230.591 36.72 228.895 36.72ZM231.391 31.536C232.383 31.536 233.311 31.344 234.175 30.96C235.039 30.544 235.695 30.016 236.143 29.376V27.36C234.767 26.432 233.199 25.968 231.439 25.968C230.319 25.968 229.455 26.208 228.847 26.688C228.239 27.168 227.935 27.872 227.935 28.8C227.935 29.664 228.223 30.336 228.799 30.816C229.407 31.296 230.271 31.536 231.391 31.536Z" fill="#141414"/>
</svg>
