<svg width="20" height="20" viewBox="0 0 20 20" fill="none" xmlns="http://www.w3.org/2000/svg">
<path d="M11.8182 7.0625V5.5625C12.3182 5.27083 12.8295 5.05208 13.3523 4.90625C13.875 4.76042 14.4242 4.6875 15 4.6875C15.3939 4.6875 15.7803 4.72917 16.1591 4.8125C16.5379 4.89583 16.9091 5 17.2727 5.125V6.5C16.9091 6.3125 16.5417 6.17188 16.1705 6.07813C15.7992 5.98438 15.4091 5.9375 15 5.9375C14.4242 5.9375 13.8712 6.03646 13.3409 6.23438C12.8106 6.43229 12.303 6.70833 11.8182 7.0625ZM11.8182 13.9375V12.4063C12.3182 12.1146 12.8295 11.901 13.3523 11.7656C13.875 11.6302 14.4242 11.5625 15 11.5625C15.3939 11.5625 15.7803 11.6042 16.1591 11.6875C16.5379 11.7708 16.9091 11.875 17.2727 12V13.375C16.9091 13.1875 16.5417 13.0469 16.1705 12.9531C15.7992 12.8594 15.4091 12.8125 15 12.8125C14.4242 12.8125 13.8712 12.9063 13.3409 13.0938C12.8106 13.2813 12.303 13.5625 11.8182 13.9375ZM11.8182 10.5V9C12.3182 8.70833 12.8295 8.48958 13.3523 8.34375C13.875 8.19792 14.4242 8.125 15 8.125C15.3939 8.125 15.7803 8.16667 16.1591 8.25C16.5379 8.33333 16.9091 8.4375 17.2727 8.5625V9.9375C16.9091 9.75 16.5417 9.60938 16.1705 9.51563C15.7992 9.42188 15.4091 9.375 15 9.375C14.4242 9.375 13.8712 9.47396 13.3409 9.67188C12.8106 9.86979 12.303 10.1458 11.8182 10.5ZM4.72727 15.625C5.54545 15.625 6.33712 15.7552 7.10227 16.0156C7.86742 16.276 8.62121 16.6667 9.36364 17.1875V3.84375C8.68182 3.21875 7.94318 2.73437 7.14773 2.39062C6.35227 2.04687 5.54545 1.875 4.72727 1.875C4.15152 1.875 3.58712 1.97396 3.03409 2.17188C2.48106 2.36979 1.92424 2.61458 1.36364 2.90625V16.4687C1.83333 16.1771 2.36742 15.9635 2.96591 15.8281C3.56439 15.6927 4.15152 15.625 4.72727 15.625ZM10.7273 17.1875C11.4848 16.6667 12.2273 16.276 12.9545 16.0156C13.6818 15.7552 14.4545 15.625 15.2727 15.625C15.8485 15.625 16.4432 15.6875 17.0568 15.8125C17.6705 15.9375 18.197 16.1042 18.6364 16.3125V2.90625C18.1212 2.55208 17.5758 2.29167 17 2.125C16.4242 1.95833 15.8485 1.875 15.2727 1.875C14.4545 1.875 13.6629 2.04687 12.8977 2.39062C12.1326 2.73437 11.4091 3.21875 10.7273 3.84375V17.1875ZM10.0455 20C9.27273 19.2083 8.43182 18.599 7.52273 18.1719C6.61364 17.7448 5.68182 17.5312 4.72727 17.5312C4.16667 17.5312 3.62121 17.625 3.09091 17.8125C2.56061 18 2.0303 18.2292 1.5 18.5C1.15152 18.7292 0.814394 18.6979 0.488636 18.4063C0.162879 18.1146 0 17.6979 0 17.1563V2.6875C0 2.375 0.0530303 2.08854 0.159091 1.82813C0.265151 1.56771 0.424242 1.36458 0.636364 1.21875C1.27273 0.802083 1.93561 0.494792 2.625 0.296875C3.31439 0.0989586 4.01515 0 4.72727 0C5.68182 0 6.60985 0.177084 7.51136 0.53125C8.41288 0.885417 9.25758 1.42708 10.0455 2.15625C10.8182 1.42708 11.6477 0.885417 12.5341 0.53125C13.4205 0.177084 14.3333 0 15.2727 0C15.9848 0 16.6818 0.0989586 17.3636 0.296875C18.0455 0.494792 18.7045 0.802083 19.3409 1.21875C19.553 1.36458 19.7159 1.56771 19.8295 1.82813C19.9432 2.08854 20 2.375 20 2.6875V17.1563C20 17.7396 19.8295 18.1823 19.4886 18.4844C19.1477 18.7865 18.8106 18.7917 18.4773 18.5C17.9621 18.2083 17.4394 17.974 16.9091 17.7969C16.3788 17.6198 15.8333 17.5312 15.2727 17.5312C14.3182 17.5312 13.4015 17.75 12.5227 18.1875C11.6439 18.625 10.8182 19.2292 10.0455 20Z" fill="#EE780C"/>
</svg>
