<svg width="20" height="20" viewBox="0 0 20 20" fill="none" xmlns="http://www.w3.org/2000/svg">
<path d="M9.89584 18.3333L13.6667 8.33333H15.375L19.25 18.3333H17.4375L16.5833 15.7083H12.5833L11.6042 18.3333H9.89584ZM13.0417 14.25H16L14.5417 10.2083H14.5L13.0417 14.25ZM3.33334 15.8333L2.1875 14.6875L6.4375 10.4375C5.90972 9.82639 5.44097 9.2118 5.03125 8.59375C4.62153 7.97569 4.26389 7.33333 3.95834 6.66666H5.77084C6.00695 7.125 6.26736 7.55903 6.55209 7.96875C6.83681 8.37847 7.15972 8.79861 7.52084 9.22916C8.14584 8.57639 8.66667 7.8993 9.08334 7.19791C9.5 6.49652 9.85417 5.76389 10.1458 5H0.833336V3.33333H6.66667V1.66666H8.33334V3.33333H14.1667V5H11.8125C11.5069 5.95833 11.1007 6.8993 10.5938 7.82291C10.0868 8.74652 9.46528 9.625 8.72917 10.4583L10.7708 12.5208L10.1458 14.2083L7.5 11.6667L3.33334 15.8333Z" fill="#EE780C"/>
</svg>
