<svg width="33" height="33" viewBox="0 0 33 33" fill="none" xmlns="http://www.w3.org/2000/svg">
<path d="M16.5 16.1562C17.1646 16.1562 17.7318 15.9214 18.2016 15.4516C18.6714 14.9818 18.9062 14.4146 18.9062 13.75C18.9062 13.0854 18.6714 12.5182 18.2016 12.0484C17.7318 11.5786 17.1646 11.3438 16.5 11.3438C15.8354 11.3438 15.2682 11.5786 14.7984 12.0484C14.3286 12.5182 14.0938 13.0854 14.0938 13.75C14.0938 14.4146 14.3286 14.9818 14.7984 15.4516C15.2682 15.9214 15.8354 16.1562 16.5 16.1562ZM16.5 27.5344C19.5479 24.7615 21.7995 22.2464 23.2547 19.9891C24.7099 17.7318 25.4375 15.7437 25.4375 14.025C25.4375 11.3208 24.5724 9.10938 22.8422 7.39062C21.112 5.67188 18.9979 4.8125 16.5 4.8125C14.0021 4.8125 11.888 5.67188 10.1578 7.39062C8.4276 9.10938 7.5625 11.3208 7.5625 14.025C7.5625 15.7437 8.30729 17.7318 9.79688 19.9891C11.2865 22.2464 13.5208 24.7615 16.5 27.5344ZM16.5 30.25C12.8104 27.1104 10.0547 24.1943 8.23281 21.5016C6.41094 18.8089 5.5 16.3167 5.5 14.025C5.5 10.5875 6.60573 7.84896 8.81719 5.80937C11.0286 3.76979 13.5896 2.75 16.5 2.75C19.4104 2.75 21.9714 3.76979 24.1828 5.80937C26.3943 7.84896 27.5 10.5875 27.5 14.025C27.5 16.3167 26.5891 18.8089 24.7672 21.5016C22.9453 24.1943 20.1896 27.1104 16.5 30.25Z" fill="#EE780C"/>
</svg>
